<?xml version="1.0" encoding="UTF-8" standalone="no"?>
<!DOCTYPE svg PUBLIC "-//W3C//DTD SVG 1.1//EN" "http://www.w3.org/Graphics/SVG/1.1/DTD/svg11.dtd">
<svg version="1.1" xmlns="http://www.w3.org/2000/svg" xmlns:xlink="http://www.w3.org/1999/xlink" preserveAspectRatio="xMidYMid meet" viewBox="0 0 640 1000" width="640" height="1000"><defs><path d="M325 50L335 50L335 500L325 500L325 50Z" id="dAe1AoICu"></path><path d="M335 500L345 500L345 950L335 950L335 500Z" id="abqcZCxzL"></path><path d="M315 50L325 50L325 500L315 500L315 50Z" id="agDz74id4"></path><path d="M325 500L335 500L335 950L325 950L325 500Z" id="bbr2u8Wsd"></path><path d="M315 500L325 500L325 950L315 950L315 500Z" id="b42CL2NUGA"></path><path d="M335 50L345 50L345 500L335 500L335 50Z" id="d11AGAYkw5"></path><path d="M180 500C180 582.79 247.21 650 330 650C412.79 650 480 582.79 480 500C480 417.22 412.79 350 330 350C247.21 350 180 417.22 180 500Z" id="eLqPcICbB"></path></defs><g><g><g><use xlink:href="#dAe1AoICu" opacity="1" fill="#000000" fill-opacity="1"></use></g><g></g><g></g><g><use xlink:href="#bbr2u8Wsd" opacity="1" fill="#000000" fill-opacity="1"></use></g><g></g><g></g><g><use xlink:href="#eLqPcICbB" opacity="1" fill="#c1af66" fill-opacity="1"></use><g><use xlink:href="#eLqPcICbB" opacity="1" fill-opacity="0" stroke="#000000" stroke-width="10" stroke-opacity="1"></use></g></g></g></g></svg>